<svg xmlns="http://www.w3.org/2000/svg" width="1840" height="580" viewBox="0 0 1840 580">
  <defs>
    <style>
      .cls-1 {
        fill: #fff;
        fill-rule: evenodd;
      }
    </style>
  </defs>
  <path id="シェイプ_316_1" data-name="シェイプ 316 1" class="cls-1" d="M50,43.63c19.895-.254,126.92-4.741,134.75,2.268L253.8,164.948Q219.834,225.6,185.864,286.267l-2.228-1.134Zm275.068,0h134.75L325.068,287.4h-1.113q-33.963-60.652-67.932-121.318ZM475.409,129.8H600.136v32.881H475.409V129.8ZM1420.89,246.583q-0.555,43.08-1.12,86.17l-26.72-1.134V134.335c29.3-4.844,74.65-9.108,98,4.535,45.59,26.646,23.35,76.4-10.03,97.509v1.133c25.49,9.347,37.65,65.019,41.21,95.241h-25.62l-2.22-3.4C1469.18,283.589,1499.03,244.787,1420.89,246.583ZM1640.27,129.8H1765v32.881H1640.27V129.8Zm-846.361,1.134,25.614,1.134q-0.557,100.332-1.114,200.685c-7.863.408-22.612,1.707-26.727-2.268L714.841,206.9q-10.022-18.7-20.046-37.416v163.27H670.3q0.558-100.9,1.114-201.819c10.043-.314,23.443-0.936,30.068,2.267,21.83,56.565,73.191,97.745,92.432,157.6h2.227C790.079,241.957,793.877,183.494,793.909,130.934Zm198.227,23.81q-0.556,89-1.113,178.009L964.3,331.619V154.744l-60.136-1.134q0.557-11.337,1.114-22.676l147,1.134-1.11,22.676H992.136Zm147-23.81,26.72,1.134c-0.83,60.584-16.57,190.739,47.89,181.41,74.01-10.71,26.89-114.311,44.55-182.544l26.72,1.134c1.26,88.8,14.41,187.248-57.91,202.953-84.13,18.27-89.09-57.677-89.09-132.657Q1138.575,166.652,1139.14,130.934Zm281.75,94.106c34.47,1.29,62.23-1.753,67.93-29.479,8.67-42.194-35.48-47.257-67.93-41.951v71.43Zm-945.481-9.07H600.136v32.881H475.409V215.97Zm1164.861,0H1765v32.881H1640.27V215.97Zm-1454.406,73.7H323.955L253.8,412.12v-2.268Zm289.545,9.07H600.136v32.881H475.409V298.738Zm1164.861,0H1765v32.881H1640.27V298.738ZM722.636,426.86h4.455q30.622,54.417,61.25,108.846l-1.114,1.134h-5.568l-56.795-96.375v2.268l-31.182,73.7H687q-0.556-1.134-1.114-2.267Q704.26,470.516,722.636,426.86Zm21.159,0,10.023,4.535c2.038-3.949.94-3.048,5.568-4.535,4.056,5.9,5.17,6.448-1.113,11.338l-4.455-4.535L743.8,438.2C741.306,431.13,741.272,433.93,743.8,426.86ZM1012.18,434.8l-22.271,1.134v22.677l23.391,1.133q-0.57,3.969-1.12,7.937H989.909c0.5,23.628,2.476,53.067-6.682,66.895-9.423,2.95-29.7,6.162-40.091,1.134v-4.535l2.228-2.268c12.566,0.389,27.922,1,35.636-3.4q0.556-28.909,1.114-57.825c-13.042.31-33.049,2.145-42.319-2.268v-4.535q1.115-1.134,2.228-2.267h40.091V437.064L939.8,439.332v-5.669c19.031-2.637,57.175-10.621,72.385-4.536V434.8ZM834,429.127c11.124-.312,26.949-1.37,34.523,2.268q-1.115,3.4-2.228,6.8c-11.124.312-26.949,1.37-34.522-2.268V434.8Q832.886,431.963,834,429.127ZM890.8,438.2l6.682,1.134c0.46,29.533,5.393,76.846-6.682,95.24-11.791,3.6-42.782,7.283-55.681,1.134v-4.535l2.227-2.268c16.1,0.371,40.573,2.589,51.227-3.4Q889.683,481.854,890.8,438.2ZM1109.07,498.29q3.345-11.9,6.68-23.81v-1.134H1079c2.04,19.876,14.19,44.529,10.02,63.494h-5.57v-2.268q-6.12-30.609-12.25-61.226c-6.66.235-11.77-.356-15.59-2.267q1.125-2.835,2.23-5.67h11.14V452.937c4.46,0.656,3.33-.052,5.57,2.268l2.22,10.2,47.89,1.134v1.134q-4.455,15.3-8.91,30.613h-6.68Zm61.25-31.747c17.49-.307,46.9-3.953,60.13,2.268l-2.22,6.8c-17.49.307-46.9,3.953-60.14-2.268v-1.134C1168.83,470.323,1169.58,468.433,1170.32,466.543Z"/>
</svg>
